<?xml version="1.0" encoding="UTF-8" standalone="no"?>
<!-- Created with Inkscape (http://www.inkscape.org/) -->

<svg
   xmlns:dc="http://purl.org/dc/elements/1.1/"
   xmlns:cc="http://creativecommons.org/ns#"
   xmlns:rdf="http://www.w3.org/1999/02/22-rdf-syntax-ns#"
   xmlns:svg="http://www.w3.org/2000/svg"
   xmlns="http://www.w3.org/2000/svg"
   xmlns:sodipodi="http://sodipodi.sourceforge.net/DTD/sodipodi-0.dtd"
   xmlns:inkscape="http://www.inkscape.org/namespaces/inkscape"
   width="209.11533mm"
   height="99.051483mm"
   viewBox="0 0 209.11533 99.051483"
   version="1.1"
   id="svg839"
   inkscape:version="0.92.3 (2405546, 2018-03-11)"
   sodipodi:docname="XORGate.svg">
  <defs
     id="defs833" />
  <sodipodi:namedview
     id="base"
     pagecolor="#ffffff"
     bordercolor="#666666"
     borderopacity="1.0"
     inkscape:pageopacity="0.0"
     inkscape:pageshadow="2"
     inkscape:zoom="0.98994949"
     inkscape:cx="460.20648"
     inkscape:cy="10.133448"
     inkscape:document-units="mm"
     inkscape:current-layer="layer2"
     showgrid="false"
     inkscape:window-width="1853"
     inkscape:window-height="1025"
     inkscape:window-x="67"
     inkscape:window-y="27"
     inkscape:window-maximized="1" />
  <metadata
     id="metadata836">
    <rdf:RDF>
      <cc:Work
         rdf:about="">
        <dc:format>image/svg+xml</dc:format>
        <dc:type
           rdf:resource="http://purl.org/dc/dcmitype/StillImage" />
        <dc:title />
      </cc:Work>
    </rdf:RDF>
  </metadata>
  <g
     inkscape:groupmode="layer"
     id="layer1"
     inkscape:label="Layer 1">
    <path
       style="fill:none;stroke:#000000;stroke-width:2.7650001;stroke-linecap:butt;stroke-linejoin:miter;stroke-miterlimit:4;stroke-dasharray:none;stroke-opacity:1"
       d="M 57.452379,48.780649 C 57.395201,32.595132 43.641457,2.2293166 43.641457,2.2293166 l 57.278183,0.060262 c 38.7779,5.0392837 58.76219,24.1737764 73.53345,47.2180374 l 34.35574,-6.8e-5 -34.35574,6.8e-5 c -16.3277,26.512065 -40.45197,42.934452 -73.91142,47.276008 L 43.641457,96.5676 c 0,0 13.869497,-31.206161 13.810922,-47.786951 z"
       id="path817"
       inkscape:connector-curvature="0"
       sodipodi:nodetypes="scccccccs" />
    <path
       style="opacity:0.9300001;fill:#d7d7d7;fill-opacity:0.41708548;stroke:#6c6c6c;stroke-width:0.56693215;stroke-linejoin:round;stroke-miterlimit:4;stroke-dasharray:0.56693215,1.70079643;stroke-dashoffset:0;stroke-opacity:1;paint-order:stroke fill markers"
       d="m 177.32056,358.53728 c 0,-0.2801 3.86987,-8.59927 8.59972,-18.48703 15.16561,-31.70373 24.99214,-65.32717 31.39735,-107.43226 1.67337,-11 3.63138,-23.85714 4.35113,-28.57142 2.74668,-17.99046 1.83022,-28.89988 -6.30045,-75 C 208.89311,92.332781 197.3169,56.125045 182.79898,27.177108 l -5.59452,-11.155173 105.41519,0.5518 c 115.45782,0.604369 114.51841,0.543922 151.84376,9.77044 68.48135,16.928023 133.49365,56.856626 179.2353,110.080945 12.93722,15.05355 27.9925,35.35635 33.94916,45.78209 l 3.0301,5.3035 -8.3133,12.55364 c -26.70394,40.32473 -59.26148,73.02127 -99.32983,99.75389 -52.8446,35.2566 -110.40445,54.16054 -176.0795,57.82841 -21.72781,1.21347 -189.63478,2.00206 -189.63478,0.89063 z"
       id="path819"
       inkscape:connector-curvature="0"
       transform="scale(0.26458333)" />
    <path
       style="fill:none;stroke:#000000;stroke-width:2.70000005;stroke-linecap:butt;stroke-linejoin:miter;stroke-miterlimit:4;stroke-dasharray:none;stroke-opacity:1"
       d="m 25.457523,2.4838804 c 17.611899,31.3612396 15.867011,62.7224796 0,94.0837196 v 0 0"
       id="path823"
       inkscape:connector-curvature="0"
       sodipodi:nodetypes="cccc" />
    <path
       style="fill:none;stroke:#000000;stroke-width:2.70000005;stroke-linecap:butt;stroke-linejoin:miter;stroke-miterlimit:4;stroke-dasharray:none;stroke-opacity:1"
       d="M 34.54949,25.868445 H 1.818394 v 0"
       id="path825"
       inkscape:connector-curvature="0"
       sodipodi:nodetypes="ccc" />
    <path
       style="fill:none;stroke:#000000;stroke-width:2.70000005;stroke-linecap:butt;stroke-linejoin:miter;stroke-miterlimit:4;stroke-dasharray:none;stroke-opacity:1"
       d="M 34.54949,73.146692 H 1.818394 v 0 0"
       id="path827"
       inkscape:connector-curvature="0"
       sodipodi:nodetypes="cccc" />
  </g>
</svg>
